<svg xmlns="http://www.w3.org/2000/svg" width="64" height="64" viewBox="0 0 64 64">
    
    <defs>
      <linearGradient id="g" x1="0" y1="0" x2="0" y2="1">
        <stop offset="0" stop-color="#E1C76A"/>
        <stop offset="1" stop-color="#C9A227"/>
      </linearGradient>
    </defs>
    <rect x="0" y="0" width="64" height="64" rx="17.92" ry="17.92" fill="#0F0F0F"/>
    <g transform="translate(32 32) scale(1.0105263157894737)" fill="url(#g)"><path d="M0 0 C -1.4 -5, -9.5 -6.5, -9.5 -13 C -9.5 -17.4, -4 -19, -1.2 -16 C -0.5 -15.3, 0 -14.3, 0 -13.2 C 0 -14.3, 0.5 -15.3, 1.2 -16 C 4 -19, 9.5 -17.4, 9.5 -13 C 9.5 -6.5, 1.4 -5, 0 0 Z" transform="rotate(45)"/><path d="M0 0 C -1.4 -5, -9.5 -6.5, -9.5 -13 C -9.5 -17.4, -4 -19, -1.2 -16 C -0.5 -15.3, 0 -14.3, 0 -13.2 C 0 -14.3, 0.5 -15.3, 1.2 -16 C 4 -19, 9.5 -17.4, 9.5 -13 C 9.5 -6.5, 1.4 -5, 0 0 Z" transform="rotate(135)"/><path d="M0 0 C -1.4 -5, -9.5 -6.5, -9.5 -13 C -9.5 -17.4, -4 -19, -1.2 -16 C -0.5 -15.3, 0 -14.3, 0 -13.2 C 0 -14.3, 0.5 -15.3, 1.2 -16 C 4 -19, 9.5 -17.4, 9.5 -13 C 9.5 -6.5, 1.4 -5, 0 0 Z" transform="rotate(225)"/><path d="M0 0 C -1.4 -5, -9.5 -6.5, -9.5 -13 C -9.5 -17.4, -4 -19, -1.2 -16 C -0.5 -15.3, 0 -14.3, 0 -13.2 C 0 -14.3, 0.5 -15.3, 1.2 -16 C 4 -19, 9.5 -17.4, 9.5 -13 C 9.5 -6.5, 1.4 -5, 0 0 Z" transform="rotate(315)"/></g>
  </svg>